<?xml version="1.0" encoding="UTF-8"?>
<svg version="1.1" xmlns="http://www.w3.org/2000/svg" width="59" height="61">
<path d="M0 0 C19.47 0 38.94 0 59 0 C59 20.13 59 40.26 59 61 C39.53 61 20.06 61 0 61 C0 40.87 0 20.74 0 0 Z " fill="#0B0B0A" transform="translate(0,0)"/>
<path d="M0 0 C19.47 0 38.94 0 59 0 C59 20.13 59 40.26 59 61 C39.53 61 20.06 61 0 61 C0 40.87 0 20.74 0 0 Z M6 7 C6 21.85 6 36.7 6 52 C20.85 52.33 35.7 52.66 51 53 C51 37.82 51 22.64 51 7 C36.15 7 21.3 7 6 7 Z " fill="#090908" transform="translate(0,0)"/>
<path d="M0 0 C2.20770805 -0.08165496 4.41630425 -0.13948488 6.625 -0.1875 C7.85476562 -0.22230469 9.08453125 -0.25710937 10.3515625 -0.29296875 C14.31374182 0.0251934 16.6546735 0.88925828 20 3 C21.375 5.6875 21.375 5.6875 22 8 C25.3 8 28.6 8 32 8 C32 8.99 32 9.98 32 11 C28.7 11 25.4 11 22 11 C21.731875 11.78375 21.46375 12.5675 21.1875 13.375 C20 16 20 16 17 18 C15.00708008 18.22705078 15.00708008 18.22705078 12.76953125 18.1953125 C11.96708984 18.18886719 11.16464844 18.18242188 10.33789062 18.17578125 C9.50451172 18.15902344 8.67113281 18.14226563 7.8125 18.125 C6.96751953 18.11597656 6.12253906 18.10695313 5.25195312 18.09765625 C3.16784757 18.07410703 1.08388783 18.03823647 -1 18 C-1 16.68 -1 15.36 -1 14 C-2.98 14 -4.96 14 -7 14 C-7 13.34 -7 12.68 -7 12 C-5.02 12 -3.04 12 -1 12 C-1 10.02 -1 8.04 -1 6 C-2.98 6 -4.96 6 -7 6 C-7 5.34 -7 4.68 -7 4 C-5.02 4 -3.04 4 -1 4 C-0.67 2.68 -0.34 1.36 0 0 Z " fill="#12150C" transform="translate(17,21)"/>
<path d="M0 0 C2.20770805 -0.08165496 4.41630425 -0.13948488 6.625 -0.1875 C7.85476562 -0.22230469 9.08453125 -0.25710937 10.3515625 -0.29296875 C14.31374182 0.0251934 16.6546735 0.88925828 20 3 C21.375 5.6875 21.375 5.6875 22 8 C25.3 8 28.6 8 32 8 C32 8.99 32 9.98 32 11 C28.7 11 25.4 11 22 11 C21.731875 11.78375 21.46375 12.5675 21.1875 13.375 C20 16 20 16 17 18 C15.00708008 18.22705078 15.00708008 18.22705078 12.76953125 18.1953125 C11.96708984 18.18886719 11.16464844 18.18242188 10.33789062 18.17578125 C9.50451172 18.15902344 8.67113281 18.14226563 7.8125 18.125 C6.96751953 18.11597656 6.12253906 18.10695313 5.25195312 18.09765625 C3.16784757 18.07410703 1.08388783 18.03823647 -1 18 C-1 16.68 -1 15.36 -1 14 C-2.98 14 -4.96 14 -7 14 C-7 13.34 -7 12.68 -7 12 C-5.02 12 -3.04 12 -1 12 C-1 10.02 -1 8.04 -1 6 C-2.98 6 -4.96 6 -7 6 C-7 5.34 -7 4.68 -7 4 C-5.02 4 -3.04 4 -1 4 C-0.67 2.68 -0.34 1.36 0 0 Z M1 2 C1 6.62 1 11.24 1 16 C3.60478883 16.0809313 6.20706653 16.14045434 8.8125 16.1875 C9.55048828 16.21263672 10.28847656 16.23777344 11.04882812 16.26367188 C15.22873773 16.35112693 15.22873773 16.35112693 18.984375 14.73828125 C20.18788232 12.67843218 20.4329916 11.38043777 20.4375 9 C20.45683594 8.319375 20.47617187 7.63875 20.49609375 6.9375 C20.12519205 4.87401437 20.12519205 4.87401437 18.45703125 3.26171875 C15.07239546 1.52366254 11.9553243 1.67591432 8.25 1.8125 C7.55261719 1.82603516 6.85523438 1.83957031 6.13671875 1.85351562 C4.42414459 1.8887055 2.71197059 1.94250845 1 2 Z " fill="#8FC52A" transform="translate(17,21)"/>
<path d="M0 0 C2.20770805 -0.08165496 4.41630425 -0.13948488 6.625 -0.1875 C7.85476562 -0.22230469 9.08453125 -0.25710937 10.3515625 -0.29296875 C14.26407664 0.0212053 16.64070218 1.03093467 20 3 C19.67 3.66 19.34 4.32 19 5 C18.01 4.34 17.02 3.68 16 3 C13.41114829 2.70008931 10.90850918 2.49134775 8.3125 2.375 C7.2596582 2.31699219 7.2596582 2.31699219 6.18554688 2.2578125 C4.45745345 2.1637666 2.72876325 2.0808032 1 2 C1 5.63 1 9.26 1 13 C-0.98 13 -2.96 13 -5 13 C-3.68 12.67 -2.36 12.34 -1 12 C-1 10.02 -1 8.04 -1 6 C-2.98 6 -4.96 6 -7 6 C-7 5.34 -7 4.68 -7 4 C-5.02 4 -3.04 4 -1 4 C-0.67 2.68 -0.34 1.36 0 0 Z " fill="#82B227" transform="translate(17,21)"/>
</svg>
